<svg width="60" height="61" viewBox="0 0 60 61" fill="none" xmlns="http://www.w3.org/2000/svg">
<path fill-rule="evenodd" clip-rule="evenodd" d="M54.85 21.7501L52.225 19.1251C50.9741 17.8601 49.2787 17.1335 47.5 17.1001H37.5V15.6501C37.5 11.8531 34.422 8.77508 30.625 8.77508H10C8.96447 8.77508 8.125 9.61454 8.125 10.6501C8.125 11.6856 8.96447 12.5251 10 12.5251H30.55C32.2759 12.5251 33.675 13.9242 33.675 15.6501V31.4751C33.675 32.5106 34.5145 33.3501 35.55 33.3501C36.5855 33.3501 37.425 32.5106 37.425 31.4751V20.8501H47.425C48.2535 20.8468 49.0477 21.1807 49.625 21.7751L52.25 24.2751C52.608 24.6462 52.866 25.1021 53 25.6001H42.5C41.4645 25.6001 40.625 26.4395 40.625 27.4751C40.625 28.5106 41.4645 29.3501 42.5 29.3501H53.125V39.9751C53.159 40.8253 52.8449 41.6527 52.2551 42.266C51.6653 42.8794 50.8509 43.2258 50 43.2251H47.225C46.6098 40.3406 44.0618 38.2789 41.1125 38.2789C38.1632 38.2789 35.6152 40.3406 35 43.2251H21.65C20.9771 40.2436 18.2318 38.1973 15.1823 38.4042C12.1329 38.6112 9.68917 41.0096 9.42527 44.0547C9.16136 47.0997 11.156 49.8828 14.1244 50.6113C17.0928 51.3398 20.1492 49.7963 21.325 46.9751H35.35C36.3245 49.2956 38.5957 50.8051 41.1125 50.8051C43.6293 50.8051 45.9005 49.2956 46.875 46.9751H50C53.797 46.9751 56.875 43.897 56.875 40.1001V26.6251C56.8784 24.7948 56.1492 23.0393 54.85 21.7501ZM15.55 46.5751C14.7107 46.616 13.9314 46.1406 13.5838 45.3756C13.2361 44.6105 13.3906 43.7108 13.9735 43.1055C14.5563 42.5003 15.4496 42.312 16.2272 42.6305C17.0048 42.949 17.5092 43.7098 17.5 44.5501C17.5007 45.6398 16.639 46.5347 15.55 46.5751ZM39.2038 45.3037C39.5196 46.0728 40.2686 46.575 41.1 46.5751C42.2225 46.5752 43.1363 45.6725 43.15 44.5501C43.1601 43.7187 42.6672 42.9636 41.902 42.6384C41.1368 42.3132 40.251 42.4824 39.6595 43.0666C39.068 43.6509 38.888 44.5346 39.2038 45.3037Z" fill="#F47820"/>
<path d="M26.875 22.8751C26.8615 21.8452 26.0299 21.0135 25 21.0001H5C3.96447 21.0001 3.125 21.8395 3.125 22.8751C3.125 23.9106 3.96447 24.7501 5 24.7501H25C26.0299 24.7366 26.8615 23.905 26.875 22.8751Z" fill="#F47820"/>
<path d="M25 28.5001H12.5C11.4645 28.5001 10.625 29.3395 10.625 30.3751C10.625 31.4106 11.4645 32.2501 12.5 32.2501H25C26.0355 32.2501 26.875 31.4106 26.875 30.3751C26.875 29.3395 26.0355 28.5001 25 28.5001Z" fill="#F47820"/>
</svg>
