<svg width="60" height="61" viewBox="0 0 60 61" fill="none" xmlns="http://www.w3.org/2000/svg">
<path d="M37.0019 22.7251L22.5769 37.1501C21.8457 37.8822 21.8457 39.0681 22.5769 39.8001C22.9266 40.1542 23.4042 40.3525 23.9019 40.3501C24.4001 40.3554 24.8788 40.1566 25.2269 39.8001L39.6519 25.3751C40.1535 24.9077 40.36 24.2037 40.1903 23.5394C40.0207 22.8751 39.5019 22.3563 38.8376 22.1867C38.1732 22.017 37.4693 22.2235 37.0019 22.7251Z" fill="#F47820"/>
<circle cx="24.6268" cy="25.6251" r="1.875" fill="#F47820"/>
<circle cx="37.8268" cy="36.9001" r="1.875" fill="#F47820"/>
<path fill-rule="evenodd" clip-rule="evenodd" d="M56.5988 20.9285C57.4244 23.0664 56.8831 25.4911 55.2266 27.0749C54.0274 28.1468 53.3419 29.6789 53.3419 31.2874C53.3419 32.8958 54.0274 34.428 55.2266 35.4999C56.9564 37.0716 57.5457 39.5432 56.7111 41.7264C55.8765 43.9096 53.7888 45.3578 51.4516 45.3749H50.8266C49.2747 45.3867 47.7947 46.0308 46.7284 47.1584C45.6621 48.286 45.1017 49.7997 45.1766 51.3499C45.2595 52.9083 44.6941 54.4317 43.6145 55.5587C42.5349 56.6857 41.0372 57.3159 39.4766 57.2999C37.888 57.3005 36.376 56.6174 35.3266 55.4249C34.2505 54.2329 32.7199 53.5526 31.1141 53.5526C29.5083 53.5526 27.9776 54.2329 26.9016 55.4249C25.8521 56.6174 24.3401 57.3005 22.7516 57.2999C21.1818 57.3168 19.6757 56.6798 18.5945 55.5416C17.5132 54.4035 16.9542 52.8667 17.0516 51.2999C17.1195 49.7539 16.556 48.2468 15.4904 47.1247C14.4249 46.0026 12.9489 45.3619 11.4016 45.3499H10.7766C8.5407 45.2437 6.57607 43.8333 5.76061 41.7487C4.94514 39.6641 5.4312 37.295 7.00157 35.6999C8.19237 34.6284 8.87235 33.1018 8.87235 31.4999C8.87235 29.898 8.19237 28.3714 7.00157 27.2999C5.17337 25.7475 4.51841 23.2135 5.36544 20.9697C6.21248 18.7259 8.37861 17.2568 10.7766 17.2999H11.4016C12.9696 17.2964 14.4663 16.6443 15.5366 15.4983C16.6068 14.3522 17.1552 12.8145 17.0516 11.2499C16.9969 9.70833 17.5749 8.21146 18.6513 7.10667C19.7278 6.00189 21.2091 5.38524 22.7516 5.39986C24.3463 5.39554 25.8628 6.08988 26.9016 7.29986C27.9882 8.48165 29.5211 9.15287 31.1266 9.14986C32.7233 9.14588 34.2458 8.47525 35.3266 7.29986C36.3606 6.08057 37.8779 5.37678 39.4766 5.37486C41.0418 5.35841 42.5436 5.99201 43.6241 7.12458C44.7045 8.25715 45.2667 9.78719 45.1766 11.3499C45.1015 12.8977 45.6626 14.4089 46.7297 15.5326C47.7967 16.6564 49.2769 17.2949 50.8266 17.2999H51.4516C53.7426 17.3591 55.7731 18.7906 56.5988 20.9285ZM52.4766 40.0749C52.6827 39.6395 52.5579 39.1193 52.1766 38.8249V38.6749C50.0814 36.7437 48.8896 34.0242 48.8896 31.1749C48.8896 28.3255 50.0814 25.606 52.1766 23.6749C52.5579 23.3805 52.6827 22.8603 52.4766 22.4249C52.3329 21.983 51.916 21.6882 51.4516 21.6999H50.8266C48.0376 21.6943 45.3724 20.547 43.4516 18.5249C41.5476 16.5032 40.5383 13.7997 40.6516 11.0249C40.6936 10.7265 40.6021 10.4247 40.4016 10.1999C40.1596 9.94758 39.8261 9.8034 39.4766 9.79986C39.1202 9.76685 38.7716 9.9176 38.5516 10.1999C36.6316 12.3183 33.9106 13.5337 31.0516 13.5499C28.1932 13.5306 25.4734 12.3158 23.5516 10.1999C23.3579 9.95394 23.0645 9.80727 22.7516 9.79986C22.402 9.8034 22.0686 9.94758 21.8266 10.1999C21.626 10.4247 21.5346 10.7265 21.5766 11.0249C21.7418 13.8281 20.744 16.5754 18.8183 18.6193C16.8927 20.6632 14.2097 21.8228 11.4016 21.8249H10.8516C10.3624 21.7872 9.90985 22.0855 9.75157 22.5499C9.54541 22.9853 9.67026 23.5055 10.0516 23.7999C12.1649 25.7235 13.3793 28.4422 13.4016 31.2999C13.3854 34.1589 12.17 36.8799 10.0516 38.7999C9.67026 39.0943 9.54541 39.6145 9.75157 40.0499C9.87853 40.5069 10.3025 40.8172 10.7766 40.7999H11.4016C14.1891 40.8105 16.8514 41.9587 18.7723 43.9787C20.6932 45.9987 21.7061 48.7154 21.5766 51.4999C21.5314 51.7909 21.6238 52.0864 21.8266 52.2999C22.0967 52.5692 22.4714 52.7063 22.8516 52.6749C23.1589 52.6672 23.449 52.5312 23.6516 52.2999C25.577 50.149 28.3273 48.9197 31.2141 48.9197C34.1009 48.9197 36.8511 50.149 38.7766 52.2999C38.9509 52.517 39.201 52.6599 39.4766 52.6999C39.8261 52.6963 40.1596 52.5521 40.4016 52.2999C40.6044 52.0864 40.6967 51.7909 40.6516 51.4999C40.5495 48.7268 41.5573 46.0276 43.4516 43.9999C45.3792 41.9874 48.04 40.842 50.8266 40.8249H51.3766C51.8751 40.869 52.3355 40.5551 52.4766 40.0749Z" fill="#F47820"/>
</svg>
