<svg width="226" height="81" viewBox="0 0 226 81" fill="none" xmlns="http://www.w3.org/2000/svg">
<g clip-path="url(#clip0_1664_371)">
<path d="M13.9236 63.4999C10.0215 63.4999 7.07166 62.7185 5.06735 61.1557C3.06305 59.5929 1.71464 57.385 1.02879 54.532C0.342929 51.6791 0 48.3606 0 44.5766V33.6336C0 29.6302 0.356246 26.2153 1.07207 23.3889C1.78456 20.5626 3.14629 18.3979 5.15059 16.8883C7.15489 15.3787 10.0814 14.6239 13.9269 14.6239C17.3862 14.6239 20.0663 15.1858 21.9608 16.3097C23.8552 17.4336 25.1603 19.1062 25.8728 21.3307C26.5853 23.5519 26.9449 26.3084 26.9449 29.6003V32.3967H18.9543V29.5171C18.9543 27.4323 18.8178 25.7863 18.5415 24.5793C18.2651 23.3723 17.7724 22.4945 17.0599 21.9458C16.344 21.3972 15.3286 21.1212 14.0101 21.1212C12.5818 21.1212 11.4831 21.4504 10.714 22.1088C9.94493 22.7671 9.43553 23.8777 9.18916 25.4405C8.94278 27.0033 8.81959 29.1314 8.81959 31.8181V46.7945C8.81959 50.8544 9.20248 53.5711 9.97157 54.941C10.7407 56.3143 12.1124 56.9993 14.09 56.9993C15.5716 56.9993 16.657 56.6568 17.3429 55.9718C18.0287 55.2868 18.4682 54.3126 18.6613 53.049C18.8544 51.7888 18.951 50.3623 18.951 48.7696V44.9025H26.9415V48.1943C26.9415 51.3765 26.572 54.1197 25.8295 56.424C25.0871 58.7283 23.7686 60.484 21.8742 61.691C19.9798 62.898 17.3296 63.4999 13.9236 63.4999Z" fill="#F47820"/>
<path d="M43.339 63.4999C41.4712 63.4999 39.8231 62.9645 38.3948 61.8938C36.9665 60.8232 35.8412 59.4532 35.0155 57.7807C34.1931 56.1081 33.7803 54.3392 33.7803 52.4738C33.7803 49.5111 34.2764 47.0172 35.2619 44.9856C36.2507 42.9573 37.6091 41.2415 39.3404 39.8416C41.0717 38.4418 43.076 37.2214 45.3566 36.1807C47.6339 35.1399 50.0378 34.1224 52.5648 33.1349V29.7599C52.5648 27.8413 52.4549 26.2485 52.2352 24.9883C52.0154 23.7281 51.5626 22.7804 50.8768 22.1487C50.1909 21.5202 49.1588 21.201 47.7871 21.201C46.5785 21.201 45.603 21.477 44.8605 22.0223C44.1181 22.5709 43.582 23.3523 43.2524 24.3665C42.9228 25.3807 42.7563 26.5744 42.7563 27.9443V30.3318L34.0233 30.0026C34.1332 24.7356 35.3418 20.8552 37.649 18.358C39.9563 15.8608 43.5254 14.6139 48.3597 14.6139C53.194 14.6139 56.4335 15.9041 58.4112 18.481C60.3889 21.0613 61.3777 24.7888 61.3777 29.6734V51.3964C61.3777 52.8761 61.4177 54.3059 61.5009 55.6759C61.5841 57.0491 61.694 58.3227 61.8305 59.5031C61.967 60.6835 62.0902 61.7941 62.2001 62.8349H54.1263C53.9598 61.957 53.7567 60.8464 53.507 59.5031C53.2606 58.1597 53.0808 56.9394 52.971 55.8421C52.4216 57.7075 51.3629 59.4499 49.798 61.0659C48.2332 62.6852 46.0758 63.4932 43.329 63.4932L43.339 63.4999ZM46.7982 55.9286C47.6772 55.9286 48.4996 55.6825 49.2687 55.1871C50.0378 54.6916 50.7236 54.133 51.3296 53.5012C51.9322 52.8728 52.345 52.364 52.5648 51.9783V38.4817C51.1897 39.2498 49.9013 40.0179 48.6927 40.786C47.4841 41.5541 46.4254 42.3621 45.5198 43.2133C44.6142 44.0645 43.8983 45.0222 43.3789 46.0929C42.8562 47.1636 42.5965 48.3839 42.5965 49.7538C42.5965 51.6757 42.9528 53.182 43.6686 54.2793C44.3811 55.3766 45.4265 55.9253 46.7982 55.9253V55.9286Z" fill="#F47820"/>
<path d="M69.8677 62.8415V15.279H78.6839V19.9707C80.2754 18.491 82.0333 17.2275 83.9577 16.1867C85.8788 15.1459 87.9963 14.6239 90.3036 14.6239C92.2246 14.6239 93.6929 15.116 94.7117 16.1036C95.7272 17.0911 96.443 18.3248 96.8525 19.8078C97.2653 21.2874 97.4718 22.7971 97.4718 24.3333V62.8448H88.6555V26.8836C88.6555 25.1845 88.4091 23.8677 87.913 22.9334C87.4203 22.0024 86.4015 21.5335 84.8633 21.5335C83.8745 21.5335 82.8457 21.8228 81.7736 22.398C80.7016 22.9733 79.6728 23.6749 78.6839 24.4962V62.8415H69.8677Z" fill="#006838"/>
<path d="M114.608 63.4999C112.74 63.4999 111.092 62.9645 109.664 61.8938C108.236 60.8232 107.11 59.4532 106.285 57.7807C105.462 56.1081 105.049 54.3392 105.049 52.4738C105.049 49.5111 105.545 47.0172 106.531 44.9856C107.52 42.9573 108.878 41.2415 110.609 39.8416C112.341 38.4418 114.345 37.2214 116.626 36.1807C118.903 35.1399 121.307 34.1224 123.834 33.1349V29.7599C123.834 27.8413 123.724 26.2485 123.504 24.9883C123.284 23.7281 122.832 22.7804 122.146 22.1487C121.46 21.5202 120.428 21.201 119.056 21.201C117.848 21.201 116.872 21.477 116.13 22.0223C115.387 22.5709 114.851 23.3523 114.521 24.3665C114.192 25.3807 114.025 26.5744 114.025 27.9443V30.3318L105.292 30.0026C105.402 24.7356 106.611 20.8552 108.918 18.358C111.225 15.8608 114.794 14.6139 119.629 14.6139C124.463 14.6139 127.703 15.9041 129.68 18.481C131.658 21.0613 132.647 24.7888 132.647 29.6734V51.3964C132.647 52.8761 132.687 54.3059 132.77 55.6759C132.853 57.0491 132.963 58.3227 133.1 59.5031C133.236 60.6835 133.359 61.7941 133.469 62.8349H125.395C125.232 61.957 125.026 60.8464 124.776 59.5031C124.53 58.1597 124.35 56.9394 124.24 55.8421C123.691 57.7075 122.632 59.4499 121.067 61.0659C119.502 62.6852 117.345 63.4932 114.598 63.4932L114.608 63.4999ZM118.067 55.9286C118.946 55.9286 119.769 55.6825 120.538 55.1871C121.307 54.6916 121.993 54.133 122.599 53.5012C123.201 52.8728 123.614 52.364 123.834 51.9783V38.4817C122.459 39.2498 121.17 40.0179 119.962 40.786C118.753 41.5541 117.694 42.3621 116.789 43.2133C115.883 44.0645 115.167 45.0222 114.648 46.0929C114.125 47.1636 113.866 48.3839 113.866 49.7538C113.866 51.6757 114.222 53.182 114.938 54.2793C115.65 55.3766 116.696 55.9253 118.067 55.9253V55.9286Z" fill="#F47820"/>
<path d="M138.75 80.3416V13.6895H147.566V80.3416H138.75Z" fill="#F47820"/>
<path d="M158.566 80.3416V32.7791H167.383V80.3416H158.566Z" fill="#006838"/>
<path d="M178.46 80.3416V39.2797H172.776V32.7791H178.46V30.3118C178.46 27.3491 178.693 24.8121 179.159 22.7006C179.625 20.5892 180.6 18.9565 182.085 17.806C183.567 16.6555 185.794 16.077 188.758 16.077C189.856 16.077 190.832 16.1169 191.684 16.2C192.536 16.2831 193.482 16.4328 194.527 16.6522V23.0697C194.031 22.96 193.482 22.8635 192.879 22.7804C192.273 22.6973 191.727 22.6574 191.231 22.6574C189.527 22.6574 188.441 23.2193 187.978 24.3432C187.512 25.4671 187.279 26.9634 187.279 28.8288V32.7791H194.531V39.2797H187.279V80.3416H178.463H178.46Z" fill="#F47820"/>
<path d="M212.489 81C208.753 81 205.87 80.2751 203.839 78.8187C201.808 77.3656 200.393 75.2276 199.598 72.4012C198.802 69.5749 198.402 66.1068 198.402 61.9903V51.1271C198.402 46.9042 198.815 43.3929 199.638 40.5931C200.463 37.7967 201.905 35.6852 203.962 34.2554C206.023 32.8289 208.863 32.1174 212.489 32.1174C216.498 32.1174 219.451 32.942 221.345 34.5846C223.24 36.2305 224.488 38.6047 225.094 41.7037C225.697 44.8027 226 48.5202 226 52.8528V56.72H207.215V66.2664C207.215 68.1883 207.392 69.7511 207.751 70.9581C208.108 72.1652 208.684 73.0563 209.483 73.6315C210.278 74.2068 211.307 74.4961 212.572 74.4961C213.837 74.4961 214.893 74.1802 215.579 73.5484C216.265 72.92 216.731 72.0122 216.98 70.8318C217.227 69.6514 217.35 68.2681 217.35 66.6754V63.7958H225.92V65.6047C225.92 70.3762 224.901 74.137 222.87 76.8769C220.839 79.6201 217.377 80.99 212.489 80.99V81ZM207.215 51.9517H217.35V47.6723C217.35 45.6972 217.24 44.0379 217.02 42.6946C216.801 41.3512 216.348 40.3371 215.662 39.6488C214.973 38.9638 213.891 38.6213 212.406 38.6213C210.921 38.6213 209.892 38.9505 209.153 39.6089C208.414 40.2673 207.904 41.3778 207.628 42.9406C207.352 44.5035 207.215 46.6581 207.215 49.4014V51.9517Z" fill="#F47820"/>
<path d="M162.974 0C163.021 0.349138 163.271 1.70579 163.76 2.63017C164.3 3.64433 163.873 4.53879 163.873 4.53879C163.88 4.53547 163.89 4.53214 163.897 4.52549C164.183 4.35924 164.3 3.83719 164.3 3.83719C164.646 5.14064 164.31 6.075 164.31 6.075C164.712 5.77241 164.816 5.41663 164.816 5.41663C165.232 6.52722 164.779 7.97032 164.779 7.97032C165.075 7.79076 165.288 7.38177 165.288 7.38177C165.478 8.74175 164.962 9.67278 164.962 9.67278C165.288 9.50653 165.508 9.22057 165.508 9.22057C165.638 10.3478 165.165 11.7743 165.165 11.7743C165.505 11.6512 165.681 11.2522 165.681 11.2522C165.745 12.3728 165.012 13.8558 165.012 13.8558C165.372 13.6829 165.745 13.2872 165.745 13.2872C165.691 14.441 164.832 15.6946 164.832 15.6946C165.275 15.6846 165.668 15.4086 165.668 15.4086C165.571 16.7952 164.483 18.102 164.483 18.102C164.819 18.0554 165.182 17.7262 165.182 17.7262C165.182 17.7262 163.201 21.0381 162.978 23.1528C162.685 21.0547 160.624 17.7429 160.624 17.7429C160.624 17.7429 161.017 18.0388 161.476 18.102C161.476 18.102 160.387 16.7985 160.291 15.4086C160.291 15.4086 160.684 15.6846 161.127 15.6946C161.127 15.6946 160.268 14.441 160.214 13.2872C160.214 13.2872 160.587 13.6796 160.947 13.8558C160.947 13.8558 160.214 12.3728 160.278 11.2522C160.278 11.2522 160.454 11.6512 160.794 11.7743C160.794 11.7743 160.321 10.3478 160.451 9.22057C160.451 9.22057 160.67 9.50985 160.997 9.67278C160.997 9.67278 160.481 8.73842 160.67 7.38177C160.67 7.38177 160.884 7.79409 161.18 7.97032C161.18 7.97032 160.727 6.53054 161.143 5.41663C161.143 5.41663 161.243 5.77241 161.649 6.075C161.649 6.075 161.313 5.14064 161.659 3.83719C161.659 3.83719 161.776 4.35591 162.062 4.52549C162.069 4.52882 162.079 4.53547 162.085 4.53879C162.085 4.53879 161.693 3.64101 162.199 2.63017C162.848 1.33337 162.941 0.369089 162.984 0L162.974 0Z" fill="#F47820"/>
<path d="M178.386 7.75418C178.186 8.01687 177.447 9.08756 177.158 10.0252C176.838 11.0594 175.962 11.3686 175.962 11.3686C175.969 11.3686 175.979 11.3752 175.986 11.3752C176.285 11.455 176.711 11.1857 176.711 11.1857C176.076 12.283 175.23 12.682 175.23 12.682C175.699 12.7485 176.006 12.5789 176.006 12.5789C175.543 13.5931 174.281 14.2515 174.281 14.2515C174.597 14.328 175.013 14.1949 175.013 14.1949C174.234 15.2257 173.272 15.5017 173.272 15.5017C173.598 15.6081 173.935 15.5616 173.935 15.5616C173.272 16.3962 172.007 17.0313 172.007 17.0313C172.313 17.1776 172.696 17.0279 172.696 17.0279C171.994 17.816 170.519 18.3148 170.519 18.3148C170.872 18.4378 171.384 18.4245 171.384 18.4245C170.582 19.156 169.177 19.4187 169.177 19.4187C169.477 19.7047 169.923 19.7812 169.923 19.7812C168.934 20.639 167.342 20.7853 167.342 20.7853C167.599 20.9782 168.058 21.0015 168.058 21.0015C168.058 21.0015 164.536 21.8893 162.981 23.1462C164.186 21.5568 165.015 17.9856 165.015 17.9856C165.015 17.9856 165.078 18.4411 165.342 18.7903C165.342 18.7903 165.485 17.2009 166.347 16.2133C166.347 16.2133 166.424 16.6589 166.71 16.9581C166.71 16.9581 166.973 15.5549 167.705 14.7536C167.705 14.7536 167.692 15.2623 167.815 15.6181C167.815 15.6181 168.315 14.1451 169.104 13.4435C169.104 13.4435 168.954 13.8259 169.1 14.1318C169.1 14.1318 169.736 12.8682 170.572 12.2065C170.572 12.2065 170.525 12.5457 170.632 12.8682C170.632 12.8682 170.912 11.9039 171.94 11.1292C171.94 11.1292 171.807 11.5448 171.884 11.8607C171.884 11.8607 172.543 10.6038 173.558 10.1383C173.558 10.1383 173.389 10.4442 173.455 10.913C173.455 10.913 173.851 10.0685 174.953 9.43337C174.953 9.43337 174.684 9.85566 174.764 10.1582C174.764 10.1649 174.767 10.1749 174.77 10.1815C174.77 10.1815 175.107 9.32364 176.115 8.9878C177.411 8.55554 178.116 7.97696 178.389 7.76083L178.386 7.75418Z" fill="#006838"/>
<path d="M177.421 23.1462C177.204 23.1761 176.355 23.3291 175.779 23.635C175.147 23.9708 174.587 23.7048 174.587 23.7048C174.587 23.7081 174.594 23.7148 174.594 23.7181C174.697 23.8977 175.024 23.9675 175.024 23.9675C174.211 24.1836 173.629 23.9741 173.629 23.9741C173.818 24.2268 174.038 24.2867 174.038 24.2867C173.346 24.5461 172.443 24.2634 172.443 24.2634C172.553 24.4463 172.813 24.5793 172.813 24.5793C171.964 24.699 171.381 24.3765 171.381 24.3765C171.484 24.5793 171.664 24.7156 171.664 24.7156C170.962 24.7954 170.069 24.5028 170.069 24.5028C170.146 24.7156 170.396 24.8254 170.396 24.8254C169.697 24.8653 168.771 24.4097 168.771 24.4097C168.881 24.6325 169.124 24.8653 169.124 24.8653C168.405 24.832 167.622 24.2967 167.622 24.2967C167.629 24.5727 167.802 24.8154 167.802 24.8154C166.936 24.7555 166.121 24.0772 166.121 24.0772C166.151 24.2867 166.354 24.5128 166.354 24.5128C166.354 24.5128 164.286 23.2792 162.968 23.1395C164.28 22.9566 166.344 21.6731 166.344 21.6731C166.344 21.6731 166.161 21.9159 166.121 22.2018C166.121 22.2018 166.933 21.5235 167.802 21.4637C167.802 21.4637 167.629 21.7097 167.622 21.9824C167.622 21.9824 168.405 21.447 169.124 21.4138C169.124 21.4138 168.877 21.6465 168.771 21.8693C168.771 21.8693 169.697 21.4138 170.396 21.4537C170.396 21.4537 170.146 21.5634 170.069 21.7762C170.069 21.7762 170.962 21.4836 171.664 21.5634C171.664 21.5634 171.484 21.6997 171.381 21.9026C171.381 21.9026 171.964 21.58 172.813 21.6997C172.813 21.6997 172.556 21.8328 172.443 22.0156C172.443 22.0156 173.342 21.733 174.038 21.9924C174.038 21.9924 173.815 22.0555 173.629 22.3082C173.629 22.3082 174.211 22.0988 175.024 22.3149C175.024 22.3149 174.697 22.388 174.594 22.5643C174.594 22.5676 174.587 22.5743 174.587 22.5776C174.587 22.5776 175.15 22.3348 175.779 22.6474C176.588 23.0531 177.191 23.1096 177.421 23.1362V23.1462Z" fill="#F47820"/>
<path d="M168.048 28.2137C167.962 28.1472 167.609 27.9044 167.299 27.808C166.96 27.7049 166.856 27.4156 166.856 27.4156V27.4223C166.83 27.522 166.92 27.6617 166.92 27.6617C166.557 27.4522 166.427 27.1762 166.427 27.1762C166.403 27.3292 166.46 27.4323 166.46 27.4323C166.127 27.2793 165.907 26.867 165.907 26.867C165.881 26.9701 165.924 27.1064 165.924 27.1064C165.584 26.8504 165.495 26.5345 165.495 26.5345C165.458 26.6409 165.475 26.7539 165.475 26.7539C165.198 26.5345 164.988 26.1188 164.988 26.1188C164.942 26.2186 164.988 26.345 164.988 26.345C164.729 26.1122 164.566 25.6301 164.566 25.6301C164.526 25.7464 164.529 25.9127 164.529 25.9127C164.289 25.65 164.203 25.1878 164.203 25.1878C164.11 25.2876 164.083 25.4339 164.083 25.4339C163.8 25.108 163.753 24.586 163.753 24.586C163.69 24.6691 163.683 24.822 163.683 24.822C163.683 24.822 163.39 23.6649 162.978 23.1528C163.5 23.5485 164.679 23.8212 164.679 23.8212C164.679 23.8212 164.529 23.8411 164.413 23.9276C164.413 23.9276 164.935 23.9741 165.262 24.2568C165.262 24.2568 165.115 24.2834 165.015 24.3765C165.015 24.3765 165.478 24.4629 165.741 24.7023C165.741 24.7023 165.574 24.699 165.455 24.7389C165.455 24.7389 165.941 24.9018 166.17 25.1612C166.17 25.1612 166.044 25.1113 165.944 25.1612C165.944 25.1612 166.36 25.3707 166.58 25.6467C166.58 25.6467 166.47 25.6301 166.36 25.6666C166.36 25.6666 166.677 25.7597 166.933 26.0956C166.933 26.0956 166.796 26.0523 166.693 26.0789C166.693 26.0789 167.109 26.2951 167.259 26.6309C167.259 26.6309 167.159 26.5744 167.003 26.5977C167.003 26.5977 167.279 26.7273 167.489 27.0898C167.489 27.0898 167.349 27 167.249 27.0266H167.243C167.243 27.0266 167.526 27.1363 167.635 27.4688C167.779 27.8945 167.968 28.1272 168.042 28.217L168.048 28.2137Z" fill="#006838"/>
<path d="M157.904 28.2137C157.97 28.1272 158.213 27.7748 158.31 27.4655C158.413 27.1264 158.703 27.0233 158.703 27.0233H158.696C158.596 26.9967 158.456 27.0864 158.456 27.0864C158.666 26.724 158.942 26.5943 158.942 26.5943C158.789 26.5711 158.686 26.6276 158.686 26.6276C158.839 26.2951 159.252 26.0756 159.252 26.0756C159.149 26.049 159.012 26.0922 159.012 26.0922C159.269 25.7531 159.585 25.6633 159.585 25.6633C159.478 25.6267 159.365 25.6433 159.365 25.6433C159.585 25.3674 160.001 25.1579 160.001 25.1579C159.901 25.1113 159.775 25.1579 159.775 25.1579C160.008 24.8985 160.491 24.7356 160.491 24.7356C160.374 24.6957 160.204 24.699 160.204 24.699C160.467 24.4596 160.93 24.3732 160.93 24.3732C160.83 24.28 160.684 24.2534 160.684 24.2534C161.01 23.9708 161.533 23.9243 161.533 23.9243C161.449 23.8611 161.296 23.8544 161.296 23.8544C161.296 23.8544 162.455 23.5618 162.968 23.1495C162.571 23.6715 162.298 24.8486 162.298 24.8486C162.298 24.8486 162.278 24.699 162.192 24.5826C162.192 24.5826 162.145 25.1047 161.862 25.4305C161.862 25.4305 161.836 25.2842 161.742 25.1845C161.742 25.1845 161.656 25.6467 161.416 25.9094C161.416 25.9094 161.419 25.7431 161.38 25.6234C161.38 25.6234 161.216 26.1089 160.957 26.3383C160.957 26.3383 161.007 26.2119 160.957 26.1122C160.957 26.1122 160.747 26.5278 160.471 26.7473C160.471 26.7473 160.487 26.6376 160.451 26.5278C160.451 26.5278 160.357 26.8437 160.021 27.0998C160.021 27.0998 160.064 26.9634 160.038 26.8603C160.038 26.8603 159.821 27.276 159.485 27.4256C159.485 27.4256 159.542 27.3259 159.518 27.1696C159.518 27.1696 159.389 27.4456 159.026 27.655C159.026 27.655 159.116 27.5154 159.089 27.4156V27.409C159.089 27.409 158.979 27.6916 158.646 27.8014C158.22 27.9443 157.987 28.1339 157.897 28.207L157.904 28.2137Z" fill="#006838"/>
<path d="M148.528 23.1462C148.744 23.1163 149.593 22.9633 150.169 22.6574C150.802 22.3216 151.361 22.5876 151.361 22.5876C151.361 22.5842 151.355 22.5776 151.355 22.5743C151.251 22.3947 150.925 22.3249 150.925 22.3249C151.737 22.1087 152.32 22.3182 152.32 22.3182C152.13 22.0655 151.911 22.0057 151.911 22.0057C152.603 21.7463 153.502 22.0289 153.502 22.0289C153.392 21.8461 153.132 21.7131 153.132 21.7131C153.981 21.5933 154.564 21.9159 154.564 21.9159C154.461 21.7131 154.281 21.5767 154.281 21.5767C154.984 21.4969 155.876 21.7895 155.876 21.7895C155.799 21.5767 155.55 21.467 155.55 21.467C156.249 21.4271 157.174 21.8826 157.174 21.8826C157.064 21.6599 156.821 21.4271 156.821 21.4271C157.541 21.4603 158.323 21.9957 158.323 21.9957C158.316 21.7197 158.143 21.477 158.143 21.477C159.009 21.5368 159.825 22.2151 159.825 22.2151C159.795 22.0057 159.591 21.7796 159.591 21.7796C159.591 21.7796 161.659 23.0132 162.977 23.1528C161.666 23.3357 159.601 24.6192 159.601 24.6192C159.601 24.6192 159.785 24.3765 159.825 24.0905C159.825 24.0905 159.012 24.7688 158.143 24.8287C158.143 24.8287 158.316 24.5826 158.323 24.31C158.323 24.31 157.541 24.8453 156.821 24.8786C156.821 24.8786 157.068 24.6458 157.174 24.423C157.174 24.423 156.249 24.8786 155.55 24.8387C155.55 24.8387 155.799 24.7289 155.876 24.5161C155.876 24.5161 154.987 24.8087 154.281 24.7289C154.281 24.7289 154.461 24.5926 154.564 24.3898C154.564 24.3898 153.981 24.7123 153.132 24.5926C153.132 24.5926 153.389 24.4596 153.502 24.2767C153.502 24.2767 152.603 24.5594 151.911 24.3C151.911 24.3 152.134 24.2368 152.323 23.9841C152.323 23.9841 151.741 24.1936 150.928 23.9775C150.928 23.9775 151.255 23.9043 151.358 23.7281C151.358 23.7248 151.364 23.7181 151.364 23.7148C151.364 23.7148 150.802 23.9575 150.173 23.645C149.364 23.2393 148.761 23.1828 148.531 23.1562L148.528 23.1462Z" fill="#F47820"/>
<path d="M147.562 7.75418C147.762 8.01687 148.501 9.08756 148.791 10.0252C149.111 11.0594 149.986 11.3686 149.986 11.3686C149.98 11.3686 149.97 11.3752 149.963 11.3752C149.663 11.455 149.237 11.1857 149.237 11.1857C149.873 12.283 150.719 12.682 150.719 12.682C150.249 12.7485 149.943 12.5789 149.943 12.5789C150.406 13.5931 151.668 14.2515 151.668 14.2515C151.351 14.328 150.939 14.1949 150.939 14.1949C151.718 15.2257 152.68 15.5017 152.68 15.5017C152.354 15.6081 152.017 15.5616 152.017 15.5616C152.68 16.3962 153.945 17.0313 153.945 17.0313C153.639 17.1776 153.256 17.0279 153.256 17.0279C153.958 17.816 155.433 18.3148 155.433 18.3148C155.08 18.4378 154.568 18.4245 154.568 18.4245C155.37 19.156 156.775 19.4187 156.775 19.4187C156.475 19.7047 156.029 19.7812 156.029 19.7812C157.018 20.639 158.609 20.7853 158.609 20.7853C158.353 20.9782 157.894 21.0015 157.894 21.0015C157.894 21.0015 161.416 21.8893 162.971 23.1462C161.766 21.5568 160.937 17.9856 160.937 17.9856C160.937 17.9856 160.873 18.4411 160.61 18.7903C160.61 18.7903 160.467 17.2009 159.605 16.2133C159.605 16.2133 159.528 16.6589 159.242 16.9581C159.242 16.9581 158.979 15.5549 158.247 14.7536C158.247 14.7536 158.26 15.2623 158.137 15.6181C158.137 15.6181 157.637 14.1451 156.848 13.4435C156.848 13.4435 156.998 13.8259 156.852 14.1318C156.852 14.1318 156.216 12.8682 155.38 12.2065C155.38 12.2065 155.427 12.5457 155.32 12.8682C155.32 12.8682 155.04 11.9039 154.012 11.1292C154.012 11.1292 154.145 11.5448 154.068 11.8607C154.068 11.8607 153.409 10.6038 152.393 10.1383C152.393 10.1383 152.563 10.4442 152.497 10.913C152.497 10.913 152.1 10.0685 150.998 9.43337C150.998 9.43337 151.268 9.85566 151.188 10.1582C151.188 10.1649 151.185 10.1749 151.182 10.1815C151.182 10.1815 150.845 9.32364 149.836 8.9878C148.541 8.55554 147.836 7.97696 147.562 7.76083V7.75418Z" fill="#006838"/>
<path d="M163.148 21.6865H162.801V30.3052H163.148V21.6865Z" fill="#006838"/>
</g>
<defs>
<clipPath id="clip0_1664_371">
<rect width="226" height="81" fill="white"/>
</clipPath>
</defs>
</svg>
