<svg width="26" height="26" viewBox="0 0 26 26" fill="none" xmlns="http://www.w3.org/2000/svg">
<path fill-rule="evenodd" clip-rule="evenodd" d="M3.75916 4.60416H4.84249L4.89666 4.61499C6.39833 4.64412 7.71043 5.63695 8.14666 7.07416L8.36332 7.82166H19.6625C20.6603 7.8262 21.6077 8.26044 22.2625 9.01332C22.9154 9.77098 23.2043 10.7763 23.0533 11.765L22.4033 16.25C22.1868 17.9691 20.7343 19.2644 19.0017 19.2833H12.6317C11.1099 19.2777 9.76974 18.2802 9.32749 16.8242L6.58666 7.58332C6.37677 6.79052 5.66258 6.23602 4.84249 6.22916H3.75916C3.31042 6.22916 2.94666 5.86539 2.94666 5.41666C2.94666 4.96793 3.31042 4.60416 3.75916 4.60416ZM10.8875 16.3042C11.1175 17.0755 11.8268 17.6042 12.6317 17.6042H19.0017C19.8983 17.5944 20.6576 16.9403 20.8 16.055L21.45 11.5592C21.5385 11.0358 21.3942 10.4999 21.0548 10.0919C20.7154 9.68379 20.2148 9.44419 19.6842 9.43582H8.85082L10.8875 16.3042Z" fill="#FDFDFD"/>
<path d="M12.3825 20.5833C11.7842 20.5833 11.2992 21.0683 11.2992 21.6667C11.2992 22.265 11.7842 22.75 12.3825 22.75C12.9808 22.75 13.4658 22.265 13.4658 21.6667C13.4658 21.0683 12.9808 20.5833 12.3825 20.5833Z" fill="#FDFDFD"/>
<path d="M18.8825 20.5833C18.2842 20.5833 17.7992 21.0683 17.7992 21.6667C17.7992 22.265 18.2842 22.75 18.8825 22.75C19.4808 22.75 19.9658 22.265 19.9658 21.6667C19.9658 21.0683 19.4808 20.5833 18.8825 20.5833Z" fill="#FDFDFD"/>
</svg>
