<svg width="445" height="618" viewBox="0 0 445 618" fill="none" xmlns="http://www.w3.org/2000/svg">
<g style="mix-blend-mode:color-burn">
<path fill-rule="evenodd" clip-rule="evenodd" d="M396.836 89.9061C509.225 252.735 398.798 272.682 326.593 262.302L264.367 258.16C261.825 373.894 270.976 514.451 317.687 544.16C395.262 593.497 236.342 654.297 190.552 588.015C144.762 521.734 126.446 405.617 172.236 313.919C182.765 292.834 193.872 272.699 204.765 254.193L204.55 254.179L103.698 262.302C-69.9085 262.302 13.049 147.371 76.2286 89.9061C136.269 22.0608 284.447 -72.9225 396.836 89.9061ZM351.635 156.413C359.18 169.244 373.793 175.098 384.273 169.49C394.753 163.882 397.132 148.934 389.586 136.103C382.04 123.273 367.428 117.418 356.948 123.027C346.468 128.635 344.089 143.583 351.635 156.413ZM318.528 71.3349C305.72 71.3349 295.337 64.6644 295.337 56.4359C295.337 48.2073 305.72 41.5368 318.528 41.5368C331.337 41.5368 341.72 48.2073 341.72 56.4359C341.72 64.6644 331.337 71.3349 318.528 71.3349ZM163.761 76.7527C163.761 87.7241 170.541 96.6182 178.906 96.6182C187.271 96.6182 194.052 87.7241 194.052 76.7527C194.052 65.7814 187.271 56.8873 178.906 56.8873C170.541 56.8873 163.761 65.7814 163.761 76.7527ZM285.398 117.387C279.908 117.387 275.458 112.737 275.458 107.002C275.458 101.267 279.908 96.6182 285.398 96.6182C290.887 96.6182 295.337 101.267 295.337 107.002C295.337 112.737 290.887 117.387 285.398 117.387ZM162.814 162.535C162.814 176.499 179.342 187.819 199.731 187.819C220.12 187.819 236.648 176.499 236.648 162.535C236.648 148.572 220.12 137.252 199.731 137.252C179.342 137.252 162.814 148.572 162.814 162.535ZM369.171 243.803C350.351 243.803 335.094 232.888 335.094 219.423C335.094 205.958 350.351 195.042 369.171 195.042C387.992 195.042 403.249 205.958 403.249 219.423C403.249 232.888 387.992 243.803 369.171 243.803ZM57.7422 213.102C57.7422 227.065 71.5158 238.385 88.5065 238.385C105.497 238.385 119.271 227.065 119.271 213.102C119.271 199.138 105.497 187.819 88.5065 187.819C71.5158 187.819 57.7422 199.138 57.7422 213.102Z" fill="#969696"/>
</g>
</svg>
